# xmcd
#
# Track frame offsets:
#	150
#	14774
#	30457
#	51099
#	70650
#	86275
#	101659
#	118911
#	136437
#	153150
#	165843
#	177157
#	190442
#
# Disc length: 2742 seconds
#
# Revision: 1
# Processed by: cddbd v1.5.2PL0 Copyright (c) Steve Scherf et al.
# Submitted via: audiograbber 1.83.01
#
DISCID=a30ab40d
DTITLE=Goodbye Girls, The - Snowy Side of the Mountain
DYEAR=2016
DGENRE=Bluegrass
TTITLE0=Snowy Side Of The Mountain
TTITLE1=I've Always Been A Rambler
TTITLE2=Rain and Snow
TTITLE3=Höstrusk
TTITLE4=Little Black Train
TTITLE5=Goodbye Girls, I'm Going To Boston
TTITLE6=Little Maggie
TTITLE7=Pisew Falls
TTITLE8=No Sir, No
TTITLE9=Graveyard
TTITLE10=Going Up To Hamburg
TTITLE11=Pretty Little Girl
TTITLE12=Black Eyed Suzie
EXTD=
EXTT0=
EXTT1=
EXTT2=
EXTT3=
EXTT4=
EXTT5=
EXTT6=
EXTT7=
EXTT8=
EXTT9=
EXTT10=
EXTT11=
EXTT12=
PLAYORDER=
